<?xml version="1.0" standalone="no"?>
<!DOCTYPE svg PUBLIC "-//W3C//DTD SVG 20010904//EN"
 "http://www.w3.org/TR/2001/REC-SVG-20010904/DTD/svg10.dtd">
<svg version="1.0" xmlns="http://www.w3.org/2000/svg"
 width="1165.000000pt" height="1165.000000pt" viewBox="0 0 1165.000000 1165.000000"
 preserveAspectRatio="xMidYMid meet">
<metadata>
Created by potrace 1.11, written by Peter Selinger 2001-2013
</metadata>
<g transform="translate(0.000000,1165.000000) scale(0.100000,-0.100000)"
fill="#000000" stroke="none">
<path d="M4183 11603 c-155 -106 -256 -188 -294 -239 -21 -29 -48 -58 -59 -64
-11 -6 -30 -30 -42 -55 -57 -110 -79 -145 -93 -145 -8 0 -15 -9 -15 -20 0 -29
-21 -34 -65 -16 -53 23 -54 20 -2 -19 43 -33 45 -37 37 -66 -12 -42 -16 -44
-45 -31 -28 13 -34 2 -10 -18 20 -17 19 -49 -2 -57 -11 -4 -26 4 -45 25 -31
36 -34 35 -17 -2 9 -20 9 -29 -1 -41 -10 -12 -10 -15 1 -15 35 -1 42 -16 23
-51 -25 -45 -34 -51 -68 -44 l-30 5 23 -24 c15 -16 21 -33 19 -52 -2 -23 -10
-30 -41 -39 l-39 -11 26 -12 c32 -15 33 -27 2 -48 -18 -11 -26 -26 -28 -52 -2
-30 -7 -38 -27 -40 -23 -4 -23 -4 10 -38 27 -28 30 -34 16 -40 -15 -5 -15 -9
-2 -34 24 -46 20 -50 -47 -50 l-62 0 47 -30 c46 -29 57 -44 71 -104 7 -27 6
-28 -21 -21 l-28 7 28 -30 28 -29 -23 -7 c-13 -3 -52 -6 -88 -7 l-65 -1 72
-12 c40 -7 76 -16 80 -20 10 -9 31 -127 32 -175 l1 -34 -86 6 c-48 3 -85 4
-83 2 2 -2 35 -11 73 -19 81 -19 102 -32 85 -52 -7 -8 -21 -11 -35 -8 -22 6
-21 3 11 -29 29 -29 35 -43 35 -74 -1 -21 2 -54 5 -73 9 -58 -2 -64 -117 -70
l-103 -5 92 -8 c50 -5 98 -14 106 -20 10 -8 17 -33 19 -72 l3 -60 -50 -5 c-44
-4 -47 -6 -23 -13 66 -18 81 -27 69 -41 -7 -8 -10 -20 -9 -27 2 -10 -15 -15
-67 -19 l-70 -5 60 -13 c33 -7 67 -15 75 -18 12 -3 14 -19 10 -88 -3 -46 -9
-88 -13 -92 -4 -5 -45 -16 -90 -25 l-82 -17 88 -1 87 -1 0 -30 c0 -35 -33
-105 -52 -113 -8 -4 -5 -8 10 -12 26 -9 26 -6 6 -120 -9 -53 -21 -95 -30 -102
-8 -6 -48 -15 -87 -19 l-72 -8 88 -7 c49 -4 91 -10 93 -12 3 -3 6 -31 7 -63
l2 -59 -35 -12 -35 -12 38 0 c31 -1 39 -5 48 -28 5 -15 9 -45 7 -67 -3 -38 -6
-42 -48 -58 l-45 -17 36 0 c47 -1 63 -16 84 -81 18 -54 22 -73 44 -194 8 -48
18 -67 54 -105 24 -25 52 -59 62 -75 l19 -29 -53 -48 c-61 -57 -54 -65 12 -14
49 37 66 42 85 23 20 -20 14 -33 -25 -56 -45 -26 -29 -29 22 -5 35 17 36 17
62 -10 l27 -27 -22 -30 c-26 -35 -18 -40 14 -9 29 27 49 20 102 -34 l43 -44
-48 -31 c-58 -38 -50 -41 26 -7 l57 26 62 -37 62 -37 -22 -36 -21 -36 29 28
c17 15 35 27 41 27 21 0 163 -69 163 -79 0 -20 -13 -41 -25 -41 -8 0 -19 -16
-25 -35 -11 -32 -20 -40 -44 -36 -5 1 -5 -6 -2 -16 4 -10 10 -30 13 -45 5 -23
2 -28 -15 -28 -12 0 -24 5 -27 10 -3 6 -15 10 -26 10 -14 0 -26 15 -43 53
l-24 52 -1 -47 c-1 -48 -1 -48 -35 -48 -42 0 -59 19 -51 57 l7 28 -21 -32
c-11 -18 -29 -33 -39 -33 -10 0 -23 -5 -28 -10 -16 -16 -44 0 -44 25 0 13 -3
31 -6 40 -5 13 -10 10 -25 -14 -21 -35 -29 -36 -111 -19 -63 13 -62 11 -42 75
3 10 -15 -4 -39 -30 l-45 -49 -53 16 c-30 9 -72 20 -95 26 -56 14 -68 31 -93
129 -26 107 -26 125 2 144 12 9 17 16 10 16 -6 1 -15 -4 -18 -9 -5 -8 -11 -7
-21 1 -10 8 -14 38 -14 115 0 94 -2 106 -25 141 -20 29 -25 47 -23 82 l3 45
63 25 c34 13 61 26 59 28 -2 2 -33 -4 -69 -14 -92 -24 -94 -23 -130 87 -13 38
-13 51 -2 82 10 31 10 36 -1 32 -7 -3 -18 4 -24 15 -13 24 -3 32 92 76 31 15
60 31 63 36 8 13 3 12 -67 -20 -106 -47 -105 -47 -127 -4 -11 21 -23 54 -27
72 -7 31 -4 38 21 58 l29 23 -26 0 c-41 0 -69 29 -71 72 -2 50 19 71 117 119
91 44 93 51 3 14 -35 -14 -70 -22 -83 -19 -13 3 -26 1 -29 -5 -4 -6 -16 -11
-26 -11 -22 0 -38 39 -20 50 9 5 8 9 -3 13 -24 9 -47 93 -40 143 3 24 10 44
14 44 5 0 9 12 9 26 0 21 -3 25 -17 19 -44 -18 -53 -17 -53 3 0 19 45 54 125
95 45 24 22 20 -47 -8 -71 -29 -94 -31 -102 -9 -13 33 -5 53 30 74 19 12 33
25 30 28 -3 2 -12 -1 -21 -8 -21 -18 -42 -6 -62 35 l-17 35 32 33 c42 43 40
51 -5 29 -27 -13 -37 -14 -40 -5 -3 7 -22 34 -44 60 -26 32 -39 57 -39 78 0
40 7 49 60 79 25 14 41 26 35 26 -5 -1 -21 -7 -35 -15 -33 -19 -60 -19 -60 0
0 8 6 15 13 15 6 0 3 6 -8 12 -11 6 -21 12 -23 14 -2 1 4 14 14 29 18 27 18
28 -4 21 -50 -16 -9 53 54 90 24 14 44 27 44 29 0 1 -19 -1 -42 -5 -70 -13
-91 11 -43 48 l25 20 -31 6 c-18 3 -28 10 -24 17 4 6 16 9 26 6 24 -7 24 1 -1
21 -22 19 -18 29 23 56 34 21 31 31 -5 17 -38 -14 -54 6 -27 35 13 14 17 24
10 29 -28 16 -3 105 30 105 9 0 8 4 -4 13 -15 11 -14 15 3 50 10 20 14 37 8
37 -16 0 1 72 22 95 38 42 60 91 60 133 0 37 -3 42 -22 43 -92 5 -118 -14
-171 -118 -24 -49 -56 -107 -71 -131 -18 -29 -25 -50 -20 -64 6 -21 -12 -94
-28 -112 -4 -6 -8 -22 -8 -36 0 -14 -6 -32 -12 -38 -10 -10 -10 -17 0 -32 18
-29 15 -48 -13 -75 -19 -20 -35 -25 -77 -26 -29 -1 -39 -4 -23 -6 91 -10 114
-28 115 -87 0 -15 -5 -17 -26 -12 l-26 7 21 -30 c40 -56 18 -91 -30 -45 -42
40 -44 26 -3 -26 l35 -45 -38 -17 c-35 -15 -36 -17 -12 -17 36 -1 56 -25 39
-46 -8 -10 -20 -13 -34 -9 -19 6 -19 5 -7 -10 12 -14 12 -19 2 -25 -8 -6 -2
-10 18 -14 18 -4 31 -13 31 -21 0 -17 -48 -46 -77 -47 -10 0 -2 -5 17 -12 l35
-12 0 -77 c0 -73 -1 -77 -23 -83 -23 -6 -22 -7 17 -35 48 -35 75 -82 67 -116
-5 -18 -17 -27 -54 -36 l-47 -12 69 -16 c66 -14 102 -40 57 -40 -12 0 -21 -4
-21 -10 0 -5 6 -10 14 -10 19 0 46 -27 46 -45 0 -25 -42 -55 -102 -71 -80 -23
-65 -30 21 -10 94 22 97 21 125 -20 24 -35 24 -37 7 -67 -11 -20 -30 -35 -56
-43 -40 -12 -40 -12 28 -11 l69 2 19 -60 c11 -33 17 -70 14 -82 -4 -16 -1 -23
9 -23 8 0 16 -6 19 -12 9 -26 -11 -51 -68 -84 -70 -39 -69 -41 9 -14 38 13 64
17 75 11 13 -8 35 -61 57 -138 5 -20 -34 -50 -79 -62 -23 -5 -51 -17 -62 -26
l-20 -17 20 8 c29 10 138 25 150 20 15 -5 35 -75 35 -118 0 -42 -5 -47 -95
-86 -85 -38 -72 -41 26 -6 44 16 75 22 81 16 5 -5 10 -40 12 -78 2 -38 9 -102
15 -142 7 -40 11 -93 9 -119 -3 -46 -4 -48 -68 -86 -62 -36 -55 -41 19 -11 62
25 64 23 135 -117 37 -72 66 -141 64 -152 -2 -12 -22 -36 -46 -54 -51 -39 -50
-40 14 -13 26 12 54 18 61 16 8 -3 25 -31 38 -61 14 -30 29 -55 35 -55 6 0 24
-23 41 -50 24 -40 44 -57 90 -81 52 -26 59 -33 59 -59 0 -19 -11 -42 -31 -65
-45 -51 -21 -43 31 10 47 48 76 59 67 25 -5 -21 7 -28 18 -10 10 16 51 12 66
-6 12 -14 9 -20 -16 -42 l-30 -25 29 7 29 7 -22 -38 c-21 -37 -21 -37 19 10
45 51 59 55 114 32 42 -18 43 -22 16 -78 -21 -42 -21 -42 -1 -19 11 13 28 34
38 47 17 22 21 23 83 14 38 -5 70 -16 77 -25 6 -8 14 -11 17 -6 5 9 215 5 225
-4 2 -2 -1 -16 -7 -31 -5 -15 -13 -37 -17 -48 -4 -11 3 -4 15 15 32 51 48 60
106 60 43 0 56 -4 69 -22 l16 -23 -3 25 c-3 23 1 25 40 28 24 2 50 -2 58 -9 9
-7 14 -8 14 -1 0 14 96 46 115 38 9 -3 15 -18 15 -35 0 -24 4 -29 16 -24 11 4
14 13 9 30 -3 14 -1 31 6 39 15 19 68 18 75 -1 4 -10 20 -15 50 -15 63 0 105
-45 72 -78 -7 -7 -20 -12 -30 -12 -10 0 -18 -4 -18 -9 0 -10 34 -21 65 -21 11
0 49 -14 84 -30 55 -26 63 -33 57 -53 -3 -12 -6 -31 -6 -42 0 -11 -4 -26 -9
-34 -8 -13 -12 -13 -26 -1 -13 11 -13 7 3 -21 12 -21 22 -63 26 -109 l6 -75
-57 -28 c-32 -15 -61 -27 -65 -27 -5 0 -8 12 -8 28 l-1 27 -14 -26 c-16 -29
-3 -28 -188 -13 -77 6 -78 6 -104 45 -14 21 -28 39 -30 39 -3 0 2 -11 11 -25
9 -13 16 -33 16 -45 0 -29 -43 -27 -58 3 -10 21 -11 20 -11 -10 l-1 -33 -74 0
c-76 0 -129 13 -158 38 -16 13 -16 12 -5 -17 18 -48 -5 -62 -31 -19 -24 38
-72 86 -72 72 0 -6 13 -31 30 -57 31 -49 31 -50 -18 -60 -35 -8 -49 1 -83 50
-39 57 -49 49 -14 -11 15 -25 24 -50 20 -56 -10 -15 -46 -12 -67 7 -17 16 -18
15 -16 -8 2 -18 -2 -25 -20 -27 -22 -3 -30 4 -82 68 l-20 25 17 -47 c21 -57 7
-83 -39 -74 -20 4 -28 1 -28 -8 0 -7 -14 -16 -31 -20 -18 -3 -46 -21 -63 -39
-17 -18 -48 -43 -68 -55 -20 -13 -48 -36 -62 -53 -30 -35 -41 -36 -86 -6 -81
54 -93 58 -42 12 57 -51 62 -69 31 -109 -37 -47 -54 -50 -106 -22 -60 34 -66
33 -20 -5 21 -18 37 -39 37 -52 0 -11 -18 -51 -41 -89 -36 -59 -43 -66 -60
-57 -23 12 -24 1 -3 -29 27 -38 12 -52 -58 -53 -64 -1 -63 -2 30 -20 28 -6 52
-15 52 -20 0 -22 -50 -59 -80 -59 -16 0 -30 -4 -30 -10 0 -5 6 -10 13 -10 7 0
22 -6 32 -14 17 -12 18 -18 7 -53 -6 -22 -20 -47 -30 -56 -17 -15 -22 -14 -81
14 -72 33 -91 33 -34 -2 62 -37 75 -50 62 -66 -9 -10 -8 -13 5 -13 22 0 20 -7
-14 -51 -28 -34 -34 -37 -56 -29 -43 17 -51 11 -16 -11 17 -12 32 -23 32 -27
0 -16 -54 -72 -69 -72 -11 0 -21 -7 -25 -15 -3 -8 -16 -15 -28 -16 -22 -1 -21
-2 4 -12 30 -12 35 -25 29 -76 -3 -32 -5 -33 -40 -27 -36 5 -36 5 -13 -12 30
-23 54 -71 47 -93 -4 -11 -17 -22 -29 -25 -17 -4 -22 -11 -19 -27 3 -16 -4
-27 -27 -40 -37 -22 -34 -32 5 -17 31 12 54 0 33 -18 -7 -6 -38 -17 -68 -26
l-55 -15 71 6 c45 3 74 1 78 -5 3 -6 -3 -35 -14 -64 -11 -29 -20 -63 -20 -74
0 -12 -9 -33 -20 -47 l-20 -25 25 -6 c30 -8 31 -25 5 -68 -24 -40 -25 -58 -4
-58 15 0 15 -2 0 -25 -21 -32 -20 -35 9 -35 14 0 25 -5 25 -10 0 -17 -27 -65
-45 -80 -16 -13 -16 -15 1 -20 15 -6 18 -19 18 -88 1 -78 2 -83 33 -114 27
-27 41 -32 93 -36 60 -4 60 -5 46 -26 -13 -21 -12 -22 7 -22 19 1 25 -10 44
-82 12 -46 28 -103 36 -126 8 -24 12 -48 8 -54 -4 -6 -31 -25 -61 -42 -68 -37
-60 -38 25 -4 74 30 100 27 91 -11 -5 -18 -2 -27 9 -31 36 -14 2 -57 -55 -69
-19 -4 -46 -14 -60 -22 -14 -8 -18 -12 -9 -9 47 14 140 28 153 23 20 -8 32
-73 17 -91 -6 -7 -39 -23 -72 -36 -33 -12 -59 -23 -57 -25 2 -2 29 3 61 10 54
12 60 12 76 -4 20 -20 37 -104 25 -122 -3 -6 -30 -22 -58 -35 l-51 -24 70 3
70 2 8 -53 c6 -34 5 -64 -2 -84 -6 -18 -7 -34 -2 -37 18 -12 22 -69 7 -105
-13 -30 -27 -42 -78 -66 -74 -34 -73 -35 27 -14 42 9 79 13 82 10 12 -12 15
-153 4 -175 -10 -17 -9 -24 4 -37 8 -8 15 -31 15 -50 0 -31 -4 -36 -60 -64
-70 -35 -77 -45 -19 -25 83 30 118 13 101 -49 -8 -27 -7 -36 4 -40 22 -8 17
-46 -12 -83 l-25 -33 25 11 c33 16 56 6 49 -21 -4 -13 2 -29 15 -43 11 -12 30
-42 42 -67 18 -35 21 -50 13 -71 -8 -20 -7 -28 6 -37 14 -10 11 -16 -24 -48
-23 -21 -31 -34 -20 -29 11 4 32 12 47 18 22 9 31 8 42 -3 16 -17 56 -122 56
-148 0 -9 -26 -41 -57 -69 l-58 -53 59 35 c33 19 64 35 69 35 41 0 86 -76 87
-148 0 -29 5 -44 16 -49 15 -6 15 -22 -3 -70 -5 -15 -1 -14 20 6 20 18 28 21
31 10 22 -68 36 -135 36 -177 0 -31 5 -53 13 -56 10 -5 9 -7 0 -12 -7 -3 -13
-15 -13 -27 0 -19 2 -19 31 9 30 28 31 28 45 10 8 -11 14 -24 14 -29 0 -16 61
-151 89 -197 16 -25 54 -92 86 -150 32 -58 75 -123 96 -145 20 -22 55 -70 77
-106 48 -80 143 -204 175 -229 34 -27 110 -36 129 -16 15 14 14 20 -3 67 -11
28 -36 76 -57 106 -20 31 -46 70 -57 87 -40 63 -84 122 -99 135 -9 8 -16 29
-16 50 0 37 -22 79 -105 201 -25 36 -45 74 -45 84 0 11 -11 33 -24 50 -38 51
-68 116 -64 145 1 15 -7 42 -18 61 -12 19 -27 51 -34 70 -7 19 -19 42 -25 50
-46 56 -57 121 -25 143 20 14 20 15 -9 27 -41 17 -52 32 -62 87 -5 25 -17 55
-26 65 -18 20 -11 34 22 40 17 3 16 6 -12 21 -30 16 -73 72 -73 96 0 6 10 11
21 11 18 0 19 2 9 15 -10 12 -10 18 0 30 10 12 8 16 -14 25 -19 7 -35 27 -51
62 -22 48 -23 60 -16 133 4 44 14 90 22 102 12 20 11 27 -9 60 -39 64 -112
227 -127 281 -6 22 -5 22 76 22 91 0 93 8 11 35 -88 28 -99 43 -129 183 -16
74 -23 126 -17 132 5 5 28 5 52 0 50 -9 44 2 -9 19 -57 18 -71 41 -79 128 -9
84 -2 103 34 103 18 0 16 3 -10 19 -18 11 -35 24 -38 30 -11 17 -33 200 -28
227 2 13 14 30 26 36 21 12 21 12 -3 18 -29 7 -45 48 -65 169 -11 67 -28 117
-80 228 -36 78 -66 153 -66 166 0 19 22 45 86 104 47 43 93 79 103 81 10 2 40
-17 69 -43 29 -26 52 -44 52 -41 0 3 -13 25 -30 48 -17 22 -30 45 -30 50 0 18
113 128 131 128 9 0 36 -21 59 -48 l42 -47 -33 60 c-49 92 -24 123 55 69 l39
-27 -7 34 c-4 25 0 43 14 67 11 18 20 39 20 47 0 8 5 15 11 15 7 0 10 -17 7
-45 -2 -28 0 -41 6 -35 18 18 21 10 24 -66 1 -42 7 -84 12 -94 18 -33 12 -92
-12 -119 -13 -14 -15 -19 -6 -12 24 18 48 7 48 -24 0 -14 6 -34 12 -45 10 -16
9 -28 -4 -62 -29 -78 -30 -83 -8 -50 24 35 35 40 43 18 6 -15 -5 -96 -22 -161
-13 -53 -7 -56 19 -6 24 49 37 52 51 11 6 -16 15 -30 21 -30 5 0 7 -8 3 -19
-3 -12 0 -21 9 -24 23 -9 50 -76 51 -122 0 -36 3 -40 25 -40 27 0 30 -14 16
-70 l-8 -30 27 25 26 25 20 -25 c20 -25 21 -69 5 -115 -6 -17 -5 -17 10 3 25
33 40 27 78 -30 26 -39 34 -58 29 -77 -5 -21 -3 -24 8 -13 7 6 17 12 22 12 13
0 37 -67 37 -107 l1 -38 20 27 c36 48 58 33 60 -40 l1 -37 10 28 c13 36 40 32
53 -9 6 -17 15 -29 22 -27 12 4 36 -11 106 -69 18 -15 52 -34 75 -43 23 -10
50 -27 60 -39 9 -11 29 -29 44 -38 18 -12 32 -36 45 -74 20 -63 37 -71 41 -19
2 22 8 35 17 35 20 0 86 -46 111 -77 14 -18 23 -23 28 -15 4 7 14 12 23 12 11
0 14 -6 9 -24 -7 -29 15 -56 45 -56 11 0 23 -9 27 -20 7 -19 9 -19 27 -6 11 9
15 16 8 16 -17 0 -43 29 -43 46 0 26 42 6 88 -43 23 -25 42 -41 43 -37 1 5 2
17 3 26 1 22 4 23 41 8 53 -21 60 -26 80 -58 31 -48 46 -49 39 -2 -5 33 -4 40
10 40 12 0 16 -10 16 -37 l1 -38 14 33 c16 37 35 42 36 10 l0 -23 11 23 c12
24 52 30 65 10 4 -7 10 -35 13 -63 l6 -50 18 60 c21 69 36 85 83 85 27 0 35
-5 44 -27 13 -34 26 -43 63 -43 l30 0 -30 31 c-28 30 -28 31 -9 42 37 22 150
60 180 60 17 1 38 -3 48 -7 12 -6 17 -4 17 8 0 9 12 22 28 28 15 7 40 23 55
35 39 32 52 29 64 -14 l10 -38 12 30 c29 70 44 95 61 100 10 3 49 26 85 51 60
40 96 50 79 22 -4 -7 -2 -8 4 -4 7 4 12 13 12 20 0 21 73 76 101 76 7 0 10
-12 7 -30 -3 -17 -1 -30 4 -30 4 0 8 9 8 20 0 38 29 79 75 106 25 14 45 32 45
40 0 8 9 14 19 14 11 0 22 8 26 19 8 25 110 121 129 121 8 0 20 -16 26 -37 16
-48 34 -69 25 -28 -4 17 -13 42 -20 57 -16 33 -4 59 56 127 90 102 99 113 99
125 0 7 11 25 24 39 14 15 27 36 31 47 9 29 34 25 46 -7 28 -70 32 -77 36 -67
2 6 -5 36 -16 65 -16 41 -19 66 -14 106 6 59 16 71 40 52 14 -12 15 -10 9 19
-8 36 9 102 27 102 6 0 22 -12 35 -27 l23 -28 -21 42 c-28 59 -26 143 4 143 7
0 23 -11 36 -25 36 -38 36 -21 0 23 l-32 40 13 92 c7 50 18 99 25 108 11 15
14 15 35 -3 l23 -20 -17 27 c-20 32 -22 68 -4 68 7 0 20 -12 29 -28 12 -18 18
-22 18 -10 0 9 -16 35 -35 58 -38 46 -45 84 -20 116 15 18 16 18 41 -11 32
-38 45 -70 38 -92 -5 -17 -5 -17 9 -1 24 30 47 21 68 -26 10 -24 26 -46 34
-50 24 -9 18 -29 -27 -92 l-42 -59 47 43 c41 37 77 54 77 36 0 -4 -10 -23 -21
-43 l-22 -36 32 38 c18 20 37 37 42 37 5 0 19 -21 30 -47 11 -27 29 -55 41
-64 21 -16 21 -16 -18 -60 -96 -108 -97 -116 -2 -34 34 30 70 55 80 55 13 0
218 -209 218 -222 0 -7 -32 -104 -79 -242 -44 -127 -50 -155 -45 -196 8 -60
-18 -146 -47 -155 -10 -4 -24 -15 -30 -26 -10 -19 -8 -20 22 -17 l33 3 -3 -55
c-2 -53 -17 -157 -27 -192 -3 -9 -19 -26 -37 -37 l-32 -21 28 0 c26 0 27 -2
27 -50 0 -27 -7 -68 -17 -91 -14 -36 -25 -46 -77 -71 l-61 -28 45 5 c25 4 52
9 62 11 28 8 28 -10 -3 -112 -17 -54 -34 -119 -37 -144 -7 -43 -9 -46 -62 -67
-54 -21 -54 -22 -25 -28 58 -13 65 -17 65 -32 0 -35 -50 -102 -83 -112 l-32
-9 29 -1 29 -1 -24 -26 c-17 -18 -19 -23 -6 -18 29 11 20 -19 -19 -65 -20 -23
-62 -55 -93 -72 -31 -17 -47 -27 -36 -24 47 16 91 17 103 3 6 -8 14 -57 18
-109 l7 -94 -40 -50 c-22 -27 -56 -59 -77 -70 l-37 -20 38 -5 c33 -4 38 -8 35
-28 -3 -36 -69 -129 -108 -153 -46 -28 -39 -33 20 -13 26 9 50 14 53 11 13
-14 -35 -73 -76 -93 l-44 -21 32 -11 c17 -6 31 -13 31 -16 0 -8 -42 -80 -58
-99 -14 -15 -14 -19 2 -30 17 -12 16 -15 -12 -39 -22 -18 -27 -29 -20 -36 16
-16 -6 -62 -48 -103 -30 -29 -48 -69 -25 -54 22 13 20 -17 -4 -55 -14 -23 -30
-51 -36 -63 -5 -12 -21 -37 -34 -56 -14 -19 -23 -41 -20 -50 2 -9 -16 -41 -46
-76 -27 -33 -52 -71 -56 -85 -3 -14 -12 -35 -19 -48 -14 -21 -13 -22 13 -22
l28 0 -32 -33 c-45 -44 -77 -85 -102 -131 -12 -21 -41 -61 -64 -88 -41 -49
-41 -51 -50 -163 -2 -29 0 -30 35 -28 58 3 105 28 133 70 74 109 135 206 170
271 36 67 40 70 57 56 16 -15 18 -14 24 12 17 67 172 359 204 384 13 10 21 33
25 70 10 87 14 100 33 100 10 0 28 -7 40 -16 26 -18 27 -16 7 22 -19 37 -19
65 0 90 8 10 15 36 15 57 0 30 4 37 20 37 12 0 20 7 20 17 0 15 2 14 19 -2 20
-17 20 -16 10 19 -11 40 -2 79 33 148 23 47 55 50 113 11 l40 -27 -48 54 c-48
56 -59 96 -24 94 10 -1 17 5 17 17 0 13 5 17 16 12 14 -5 15 -3 5 15 -24 45
-2 57 42 22 37 -29 41 -25 13 13 -15 19 -26 46 -26 60 0 24 4 27 38 27 l37 1
-22 18 c-29 25 -29 40 3 104 28 55 55 87 75 87 7 0 5 10 -6 26 -16 25 -16 78
1 137 6 19 45 22 107 8 46 -11 42 -5 -21 29 -41 22 -47 29 -50 61 -2 23 3 42
13 52 10 11 12 18 4 23 -15 9 -7 120 9 136 9 9 22 9 55 1 32 -9 38 -9 25 0 -9
7 -25 18 -35 25 -16 11 -13 12 22 7 22 -3 51 -7 65 -10 22 -5 23 -4 5 4 -11 6
-44 20 -72 32 -48 19 -53 24 -53 53 0 17 9 49 19 72 14 31 17 51 11 87 -7 48
1 131 14 144 4 4 26 0 49 -8 23 -9 51 -19 62 -23 11 -4 -4 15 -32 42 -59 54
-68 89 -36 143 19 31 28 34 67 19 39 -15 31 -3 -14 20 -34 17 -40 25 -40 53 0
56 10 62 75 48 72 -16 79 -10 15 13 -62 22 -73 36 -60 70 8 22 16 26 52 27
l43 1 -38 8 c-44 8 -51 14 -44 35 9 21 34 19 96 -10 64 -30 81 -26 21 5 -22
11 -44 27 -47 36 -7 18 14 136 33 187 8 20 14 52 14 70 0 52 12 61 87 65 78 5
62 20 -24 21 l-52 1 -6 55 c-4 30 -4 70 -1 89 8 42 39 55 135 58 l66 1 -87 10
c-86 10 -88 11 -97 41 -5 17 -15 72 -22 121 -23 170 -25 183 -42 208 -20 31
-22 57 -4 57 6 0 -4 8 -23 18 -53 26 -46 49 25 88 68 38 61 44 -17 13 -60 -23
-103 -19 -93 10 4 14 -2 20 -27 27 -51 15 -47 39 9 58 26 9 59 23 73 31 l25
15 -30 -6 c-16 -3 -54 -12 -84 -21 l-54 -14 -33 32 -33 32 25 30 c31 36 26 44
-16 22 -31 -16 -33 -16 -56 6 -32 30 -30 47 9 64 l32 14 -46 -5 c-40 -6 -48
-3 -61 15 -9 12 -36 35 -62 51 -27 17 -46 37 -46 48 0 10 -12 22 -30 29 -40
15 -48 39 -21 67 32 34 25 40 -16 12 l-36 -25 -50 42 c-28 23 -52 48 -54 57
-2 8 -21 23 -41 33 -51 24 -101 60 -102 73 0 6 11 21 25 34 28 26 35 52 8 28
-50 -43 -56 -42 -160 26 -54 35 -110 74 -126 86 -31 24 -45 66 -28 83 6 6 11
16 11 22 -1 5 -11 -3 -24 -18 l-23 -28 -38 48 c-63 78 -189 200 -231 223 -40
21 -97 60 -124 85 -8 7 -35 18 -58 25 -36 9 -43 15 -39 31 4 16 0 19 -34 19
-48 0 -51 17 -4 26 21 4 35 12 35 21 0 10 -6 13 -16 9 -9 -3 -27 -9 -42 -13
-21 -5 -24 -3 -18 12 4 11 0 22 -11 30 -15 11 -15 15 -4 29 7 9 20 16 27 16 8
0 11 6 8 15 -11 27 25 28 57 1 17 -14 35 -26 41 -26 6 0 50 -15 97 -34 47 -19
128 -44 179 -56 59 -14 106 -33 131 -51 24 -17 41 -24 43 -17 6 18 58 0 89
-31 17 -18 31 -25 37 -19 11 11 59 -11 83 -38 9 -11 28 -39 42 -64 l27 -45 0
43 c0 45 4 48 47 31 35 -13 42 -25 44 -69 l1 -35 10 38 c12 46 43 61 106 53
62 -8 88 -25 177 -115 86 -88 104 -113 105 -151 l1 -25 11 23 c6 12 15 22 19
22 12 0 109 -104 141 -151 22 -33 28 -53 26 -78 -4 -27 -2 -30 7 -17 26 35 46
22 101 -69 33 -55 33 -57 16 -83 -16 -26 -16 -26 1 -13 27 21 47 6 48 -36 0
-35 1 -36 11 -15 6 12 14 22 18 22 4 0 17 -22 29 -48 22 -47 22 -50 6 -88
l-16 -39 29 28 c15 15 32 27 38 27 14 -1 76 -109 68 -121 -5 -8 -1 -8 14 0 30
16 52 14 52 -5 0 -13 3 -14 13 -5 32 26 36 -28 7 -77 l-21 -33 36 27 c20 15
37 25 39 23 2 -2 11 -20 21 -39 10 -19 24 -43 33 -53 14 -16 14 -21 -1 -52
-16 -34 -16 -35 3 -22 17 10 22 9 30 -3 5 -8 10 -25 10 -37 0 -39 18 -73 35
-67 15 6 20 -9 17 -49 -1 -13 3 -16 21 -12 19 5 25 0 36 -32 31 -87 123 -188
188 -208 18 -5 25 1 43 34 11 22 20 48 20 58 0 20 -67 160 -81 169 -16 10 -10
23 14 26 20 3 20 4 -11 23 -36 22 -38 44 -5 60 21 11 20 12 -22 33 -53 26 -60
46 -13 40 28 -5 29 -4 13 9 -11 7 -22 13 -27 13 -17 0 -7 39 12 45 36 12 21
24 -17 13 -35 -9 -39 -8 -60 18 -38 48 -28 59 52 58 l70 -1 -45 13 c-75 23
-120 46 -120 63 0 9 17 31 37 49 l38 34 -48 -25 c-47 -25 -47 -25 -58 -6 -15
29 -6 45 38 68 46 24 40 26 -18 6 -49 -18 -69 -14 -69 13 0 14 19 29 63 51 34
17 53 29 42 26 -48 -15 -105 -17 -105 -5 0 6 -9 23 -20 37 -26 33 -25 58 2 77
25 18 8 22 -22 6 -21 -11 -90 15 -90 34 0 5 15 23 33 39 21 19 25 26 12 21
-11 -4 -36 -9 -57 -12 -30 -3 -42 1 -73 30 l-38 34 39 30 c22 17 59 43 84 57
25 15 39 27 32 27 -8 0 -39 -15 -70 -33 -77 -45 -90 -49 -115 -36 -29 15 -77
60 -77 73 0 5 14 25 32 43 34 35 29 42 -12 18 -35 -20 -44 -19 -79 11 -36 30
-32 44 12 45 31 1 31 1 -10 12 -23 7 -45 15 -49 20 -4 4 8 26 26 50 55 70 56
74 4 24 -27 -26 -52 -47 -56 -47 -3 0 -11 20 -17 44 -9 36 -22 54 -73 96 -35
29 -65 57 -67 62 -2 6 19 33 45 61 35 35 40 44 19 30 -16 -12 -39 -30 -49 -42
-11 -12 -24 -21 -30 -21 -20 0 -86 50 -86 65 0 8 16 33 36 55 46 51 39 51 -22
1 l-47 -40 -28 24 c-16 13 -55 40 -89 60 -33 20 -60 39 -60 41 0 3 7 16 16 30
16 24 16 24 -12 23 -33 -2 -130 29 -165 53 -24 16 -24 16 -7 64 l17 49 -30
-33 c-36 -40 -46 -36 -30 10 l11 32 -36 -42 c-41 -48 -57 -52 -80 -17 -13 21
-19 23 -31 13 -11 -9 -16 -9 -24 3 -12 19 -11 86 1 110 6 10 8 19 6 19 -3 0
-17 -22 -31 -49 -29 -57 -37 -65 -66 -56 -15 5 -19 13 -16 27 5 18 4 19 -12 4
-19 -17 -81 -22 -97 -7 -5 5 -17 11 -27 13 -18 3 -18 4 2 30 12 14 21 34 21
43 0 10 -13 0 -33 -27 -36 -46 -70 -54 -94 -22 -8 12 -16 13 -29 6 -9 -5 -34
-7 -54 -5 -22 3 -40 1 -44 -6 -11 -17 -41 -13 -61 9 -10 11 -24 20 -30 20 -7
0 -28 11 -48 24 -20 14 -48 26 -64 28 -40 4 -44 41 -6 62 25 14 26 15 6 16
-18 0 -23 8 -28 43 -4 23 -5 58 -3 77 3 34 5 36 103 72 55 21 114 41 132 44
32 6 44 20 72 81 13 28 57 57 76 49 8 -3 15 -18 15 -33 0 -49 17 -59 24 -15 9
62 49 64 95 6 l21 -27 -6 30 -6 30 73 6 c81 7 92 2 130 -60 28 -45 36 -35 10
12 -33 62 -23 70 107 84 71 7 74 7 93 -18 l19 -26 -12 28 c-15 36 -3 48 55 54
44 5 45 5 86 -51 23 -31 44 -56 47 -56 6 0 4 3 -38 69 -37 59 -36 78 3 86 17
4 32 5 33 3 2 -1 17 -24 35 -50 17 -26 37 -50 43 -54 10 -7 -5 23 -49 92 -13
20 -11 24 16 43 38 27 48 26 96 -5 l40 -27 -33 35 c-54 57 -19 56 44 -1 70
-64 89 -67 29 -4 -70 73 -69 95 6 133 37 20 90 88 141 184 16 28 46 71 67 96
l39 45 66 -35 c86 -46 95 -33 11 16 -51 30 -65 43 -65 62 0 30 22 71 53 100
21 19 29 22 45 13 12 -6 27 -11 34 -10 7 0 3 4 -10 9 -32 13 -37 36 -18 77 13
27 21 33 34 28 39 -17 165 -55 168 -52 2 2 -26 16 -63 30 -38 15 -80 37 -95
49 l-27 23 24 70 c13 39 27 94 31 123 5 44 10 52 27 52 19 0 20 1 2 20 -16 18
-17 25 -6 60 6 22 18 40 25 40 7 0 57 -18 111 -40 54 -22 101 -40 104 -39 3 0
-34 21 -84 46 -139 70 -144 78 -100 171 27 59 33 61 113 33 28 -10 52 -16 52
-14 0 2 -27 15 -60 30 -76 33 -81 56 -11 51 57 -4 58 3 2 22 -44 14 -54 38
-20 47 15 4 17 8 8 14 -11 6 -11 12 0 31 35 66 27 65 168 25 132 -37 169 -42
86 -11 -225 82 -220 77 -178 164 39 82 45 86 97 66 24 -9 35 -10 24 -3 -80 53
-73 72 23 64 66 -5 66 -5 26 8 -22 7 -47 14 -56 14 -9 1 -19 7 -22 14 -8 21
19 74 47 92 24 16 30 15 125 -14 54 -17 103 -31 108 -31 4 0 -34 18 -86 40
-141 59 -154 79 -92 148 20 21 40 32 58 33 27 0 27 1 6 9 -47 19 -9 69 52 71
l30 1 -34 12 c-19 7 -36 17 -38 22 -2 6 10 29 27 52 22 31 37 42 57 42 25 0
25 1 9 13 -15 11 -18 22 -12 58 3 24 2 51 -3 59 -15 23 7 40 53 41 l41 1 -40
11 c-55 16 -65 24 -65 51 0 45 42 55 127 31 10 -3 -2 4 -27 15 -24 12 -47 25
-50 29 -3 4 -13 10 -22 14 -26 9 -22 57 7 97 29 39 30 41 11 34 -17 -6 -27 17
-19 45 5 19 13 21 72 21 46 0 62 3 51 10 -8 5 -33 10 -55 10 -48 0 -65 14 -65
53 0 20 6 30 20 34 24 6 25 16 4 34 -13 10 -15 25 -11 66 3 29 2 55 -2 58 -5
2 -18 31 -30 63 -39 107 -74 132 -141 97 -32 -17 -54 -70 -45 -108 5 -20 2
-26 -17 -31 l-23 -7 23 -9 c29 -12 24 -32 -9 -40 -23 -6 -23 -7 13 -31 21 -13
38 -27 38 -31 0 -12 -42 -31 -94 -43 l-48 -11 66 -28 c36 -16 66 -30 66 -33 0
-2 -7 -12 -16 -21 -15 -15 -18 -14 -34 6 -22 27 -30 28 -30 3 0 -11 -5 -23
-11 -27 -8 -4 2 -14 25 -26 44 -22 45 -38 6 -60 -27 -15 -34 -16 -70 -3 -47
16 -52 12 -12 -9 44 -23 92 -72 92 -94 0 -20 -9 -24 -110 -40 l-45 -8 38 -7
c45 -9 54 -26 37 -68 -9 -21 -22 -32 -42 -36 -22 -4 -27 -10 -23 -24 11 -34
-5 -41 -43 -17 l-36 22 34 -42 c29 -37 32 -46 24 -70 -14 -40 -41 -39 -85 4
-21 21 -39 35 -39 32 0 -3 14 -38 31 -78 50 -117 32 -137 -74 -83 -75 37 -68
20 12 -31 l71 -46 -13 -32 c-17 -42 -28 -44 -52 -9 -26 40 -30 33 -9 -18 9
-23 14 -44 11 -47 -3 -3 -25 7 -49 23 -71 49 -76 48 -20 -5 51 -49 68 -91 42
-107 -5 -3 -10 -24 -10 -45 0 -31 -5 -43 -25 -56 -19 -12 -23 -22 -19 -40 11
-41 -29 -28 -107 37 -64 53 -82 36 -23 -22 55 -53 74 -87 74 -132 0 -43 -20
-63 -49 -48 -28 15 -33 14 -23 -6 15 -30 22 -82 12 -88 -6 -3 -10 -17 -10 -31
0 -32 -16 -30 -73 6 -32 20 -45 34 -41 45 5 13 -6 15 -74 12 -108 -3 -119 7
-102 90 6 32 11 79 10 106 -1 57 9 63 70 42 61 -22 61 -12 -1 14 l-51 23 5 42
c4 23 11 55 17 70 l10 28 88 -5 87 -6 -65 13 c-86 17 -110 25 -111 39 -4 44
16 97 37 97 9 0 12 9 8 28 -5 23 -1 30 18 39 19 10 20 12 5 12 -13 1 -17 7
-15 24 3 20 10 22 73 27 61 4 65 6 36 13 -18 4 -44 7 -57 7 -13 0 -24 5 -24
10 0 6 12 10 26 10 14 0 23 4 19 10 -3 6 -15 10 -26 10 -32 0 -32 22 1 112
l31 84 112 -2 112 -3 -100 15 c-97 15 -134 31 -121 53 4 6 16 11 28 11 17 0
18 2 8 15 -17 20 -7 107 18 148 15 27 25 33 61 35 33 3 42 7 39 20 -2 9 -14
19 -28 22 -30 7 -37 38 -17 77 27 51 53 66 140 79 76 11 78 12 32 13 -27 2
-70 6 -95 9 -40 6 -45 10 -44 32 2 41 44 144 66 163 11 9 36 17 55 17 20 0 32
4 28 10 -3 6 -26 10 -50 10 l-44 0 9 31 c14 49 35 75 72 86 32 11 33 11 5 12
-32 1 -43 22 -48 91 l-4 45 55 5 55 5 -50 8 c-27 5 -58 10 -67 13 -21 6 -24
42 -4 50 15 6 10 44 -5 44 -5 0 -9 7 -9 15 0 11 12 15 51 15 59 0 58 15 -2 23
-49 6 -78 29 -62 49 6 7 13 31 17 53 12 66 16 75 49 90 l32 15 -52 -4 -53 -3
0 53 c0 36 4 54 12 54 7 0 0 11 -15 25 -25 24 -33 50 -28 101 1 12 -5 24 -14
28 -8 3 -15 12 -15 21 0 8 -5 15 -10 15 -6 0 -20 16 -32 35 -26 45 -69 68
-111 60 -73 -15 -70 -11 -64 -86 3 -41 2 -69 -4 -69 -5 0 -9 -4 -9 -10 0 -5
11 -10 25 -10 32 0 32 -23 0 -40 -31 -17 -23 -30 18 -30 36 0 65 -15 54 -27
-5 -4 -27 -13 -50 -19 l-42 -11 43 -7 c61 -11 48 -30 -23 -34 l-58 -3 31 -19
c17 -10 36 -28 42 -40 9 -17 7 -22 -12 -30 -23 -9 -23 -9 -1 -9 33 -1 53 -12
53 -27 0 -17 -5 -17 -65 1 -27 8 -50 13 -52 12 -1 -2 27 -18 62 -36 71 -35 87
-51 56 -51 -24 0 -26 -9 -9 -45 14 -31 1 -44 -47 -46 l-30 -1 33 -14 c56 -24
36 -43 -46 -45 -36 0 -42 -3 -27 -9 11 -5 33 -9 48 -9 38 -1 44 -25 18 -77
-11 -25 -21 -51 -21 -59 0 -20 -10 -19 -36 6 l-21 20 5 -26 5 -27 -33 17 c-47
24 -45 14 5 -29 48 -39 56 -66 30 -100 -20 -26 -57 -14 -119 37 -60 50 -53 36
31 -60 54 -62 74 -93 60 -93 -2 0 -48 13 -101 29 -54 16 -96 28 -94 26 2 -2
42 -23 88 -47 92 -46 111 -74 71 -100 l-21 -13 22 -16 c25 -19 19 -53 -8 -42
-13 5 -15 2 -9 -15 8 -28 4 -28 -95 4 -81 25 -118 28 -61 4 44 -18 131 -114
131 -144 0 -35 -26 -57 -58 -51 -23 5 -21 3 10 -14 43 -24 61 -47 30 -37 -20
7 -21 4 -15 -42 3 -31 1 -52 -6 -56 -12 -8 -68 8 -189 53 -112 42 -96 24 25
-29 140 -60 145 -64 141 -107 -2 -20 -8 -38 -14 -40 -10 -3 -55 26 -181 116
-72 52 -21 -1 77 -80 44 -35 80 -67 80 -71 0 -11 -24 -10 -56 2 -41 16 -41 3
-1 -16 44 -21 50 -34 34 -81 -19 -59 -50 -64 -158 -26 -49 17 -87 28 -84 24 2
-4 49 -27 104 -50 95 -41 101 -45 101 -72 0 -28 -1 -29 -52 -30 -46 -1 -49 -2
-24 -9 37 -11 66 -38 66 -62 0 -26 -22 -23 -85 13 -30 17 -55 29 -55 26 0 -2
25 -24 56 -47 53 -40 56 -44 51 -77 -3 -19 -11 -41 -18 -49 -13 -16 -58 -18
-109 -5 -19 5 -57 12 -85 15 l-50 5 60 -19 c140 -46 141 -47 142 -87 1 -22 -7
-48 -20 -67 -12 -17 -23 -33 -24 -35 -2 -2 -13 4 -25 15 -24 21 -25 27 5 -48
8 -20 7 -52 -2 -120 -7 -51 -15 -96 -18 -100 -7 -12 -53 -9 -110 5 -67 18 -59
4 10 -18 77 -24 85 -30 70 -55 -7 -11 -13 -26 -13 -34 0 -25 -20 -29 -43 -9
-53 46 -58 44 -18 -4 l43 -51 -12 -57 c-6 -30 -21 -66 -33 -79 -31 -33 -87
-60 -119 -58 -16 1 -28 -2 -28 -8 0 -23 -30 -7 -74 40 -57 61 -60 50 -4 -21
l41 -52 -54 -48 c-30 -27 -58 -49 -62 -49 -4 0 -15 12 -23 28 -45 80 -85 145
-79 127 4 -11 19 -52 34 -92 l26 -72 -22 -23 c-21 -21 -23 -21 -42 -4 -10 10
-25 31 -31 47 -7 16 -19 29 -26 29 -8 0 -25 18 -40 41 -37 59 -39 42 -4 -32
16 -35 30 -70 30 -76 0 -23 -17 -14 -29 15 -6 15 -21 38 -32 52 l-20 25 15
-32 c10 -20 12 -34 6 -38 -5 -3 2 -23 17 -46 14 -22 23 -42 20 -46 -6 -5 -110
79 -137 112 -7 9 -25 24 -40 35 l-26 19 28 -56 c15 -31 28 -62 28 -69 0 -7 14
-35 30 -61 36 -56 37 -77 9 -97 -31 -21 -78 0 -178 82 -23 19 -41 31 -41 28 0
-4 24 -33 54 -65 30 -33 62 -73 70 -89 14 -27 14 -31 -2 -45 -33 -29 -115 -67
-134 -61 -13 4 -18 0 -18 -14 0 -12 -25 -42 -61 -73 -34 -30 -96 -88 -138
-129 -87 -85 -155 -135 -170 -125 -17 10 -13 20 30 69 33 38 47 66 70 146 16
55 29 109 29 119 0 38 41 225 51 238 6 7 18 13 25 13 18 0 18 9 0 29 -35 41
-48 149 -21 171 14 11 11 15 -17 32 -41 25 -88 68 -88 82 0 5 10 21 23 35 l22
24 -25 -16 c-39 -27 -43 -21 -36 46 7 57 6 60 -8 42 -8 -11 -16 -25 -16 -31 0
-15 -39 -64 -51 -64 -5 0 -10 19 -10 43 -1 23 -4 32 -6 20 -9 -47 -29 -48 -83
-3 -27 23 -50 40 -50 37 0 -2 11 -24 24 -48 51 -92 32 -136 -37 -87 l-30 22 5
-22 c9 -32 -6 -35 -54 -12 l-43 21 28 -21 c18 -15 27 -31 27 -50 0 -16 5 -32
10 -35 21 -13 -2 -25 -48 -26 -26 -1 -58 -5 -72 -9 -21 -7 -17 -8 22 -9 25 -1
54 -4 63 -7 14 -6 14 -8 -1 -25 -16 -18 -16 -19 26 -19 41 0 42 -1 27 -18 -10
-10 -41 -29 -70 -42 -28 -12 -62 -27 -74 -32 -11 -6 -26 -7 -32 -4 -6 4 -11 3
-11 -3 0 -6 -12 -5 -32 1 -106 34 -123 55 -61 77 l37 14 -30 25 c-16 14 -29
28 -30 31 -3 38 -18 70 -35 74 -26 7 -24 36 3 46 l22 8 -22 5 c-16 5 -22 14
-22 33 0 24 -3 26 -22 21 -13 -4 -47 -9 -77 -11 -52 -4 -53 -3 -48 21 4 23 3
24 -14 8 -22 -20 -42 -14 -65 21 -15 22 -15 30 -5 47 11 18 10 19 -11 13 -13
-4 -25 -12 -27 -18 -8 -20 -50 -57 -66 -57 -9 0 -34 29 -57 65 -44 72 -62 81
-29 16 12 -22 21 -51 21 -64 0 -30 -20 -49 -40 -37 -10 6 -24 -2 -47 -26 -18
-19 -37 -43 -42 -52 -9 -16 -12 -16 -40 1 l-30 18 14 -28 c22 -41 19 -99 -5
-123 -18 -18 -19 -23 -6 -43 8 -12 29 -107 46 -212 18 -104 38 -205 46 -224
14 -35 19 -91 7 -91 -3 0 -40 28 -82 62 -41 35 -72 57 -67 50 4 -6 3 -12 -3
-12 -17 0 -41 12 -41 21 0 13 -67 73 -142 126 -63 46 -67 50 -70 93 -3 43 -4
44 -12 15 -16 -60 -14 -59 -41 -41 -13 9 -36 16 -50 16 -38 0 -31 27 15 50 53
27 51 32 -4 14 -25 -9 -55 -14 -68 -12 -21 3 -23 8 -21 53 l2 50 -16 -37 c-19
-46 -27 -47 -43 -8 -8 18 -20 30 -31 30 -14 0 -9 11 26 47 25 26 45 50 45 55
0 13 -17 9 -30 -7 -16 -20 -98 -75 -111 -75 -12 0 -12 17 1 25 6 3 10 13 10
22 0 14 -4 13 -23 -5 -13 -12 -29 -22 -35 -22 -7 0 -12 -4 -12 -10 0 -18 -29
-10 -40 11 -14 26 0 45 41 54 16 4 31 11 34 16 4 5 14 9 24 9 10 0 24 7 31 15
16 20 7 19 -38 -4 -63 -32 -82 -35 -82 -14 0 10 9 33 21 52 31 51 15 49 -38
-6 -51 -54 -97 -86 -107 -76 -14 14 -3 41 39 98 25 33 45 62 45 65 0 3 -26
-22 -58 -54 -41 -43 -58 -55 -60 -42 -3 11 -10 14 -26 10 -30 -7 -96 21 -96
41 0 9 7 30 16 46 24 46 12 56 -16 12 -32 -48 -62 -52 -114 -15 -61 43 -65 55
-27 87 35 30 35 46 -1 21 -12 -9 -31 -16 -40 -16 -10 0 -26 -5 -36 -11 -16
-10 -33 -2 -111 50 l-92 62 3 142 3 142 55 12 55 12 -58 -2 c-49 -2 -57 1 -57
16 0 34 31 172 46 201 17 36 17 37 -1 30 -25 -10 -40 39 -26 86 6 22 15 40 19
40 4 0 24 -4 45 -9 45 -11 58 3 21 22 -33 17 -26 22 68 47 l73 19 -110 1 c-60
0 -116 4 -123 9 -9 5 -12 25 -10 62 l3 54 61 31 62 31 -55 6 c-30 3 -57 8 -60
11 -17 16 37 39 186 76 69 18 42 21 -43 5 -116 -22 -144 -20 -156 11 -13 33
-13 80 0 104 5 10 24 22 42 26 l33 8 -35 6 -35 5 63 43 c35 24 61 46 59 49 -3
2 -32 -9 -66 -26 -33 -17 -63 -31 -66 -31 -9 0 -6 77 4 103 8 21 25 28 120 53
60 16 108 30 107 31 -2 2 -48 -4 -102 -14 -55 -9 -107 -14 -117 -10 -12 5 -17
18 -17 50 0 45 12 68 44 84 16 9 15 11 -13 16 -24 5 -31 12 -31 29 0 60 7 65
108 90 l97 24 -100 0 -100 -1 -3 37 c-3 31 2 40 27 59 17 13 31 27 31 33 0 6
-5 5 -12 -2 -22 -22 -38 -13 -38 21 l0 33 93 15 92 14 -70 3 c-89 3 -115 9
-115 27 0 24 59 83 95 95 34 11 44 24 26 34 -4 3 -27 -2 -49 -11 -49 -19 -72
-12 -72 20 0 26 29 56 78 82 42 21 37 28 -11 14 -21 -5 -41 -8 -46 -5 -15 10
-43 147 -37 181 7 35 23 53 65 72 l26 11 -28 1 c-24 1 -28 5 -25 24 2 15 14
26 38 34 35 11 35 12 -15 28 -21 6 -19 22 8 49 17 17 21 29 15 39 -6 11 -2 22
14 36 12 12 24 21 27 21 3 1 29 7 56 15 l50 14 -53 0 c-39 1 -54 5 -59 17 -7
20 13 34 51 34 l29 0 -21 23 c-38 40 -28 55 65 92 53 22 55 24 30 30 -37 10
-53 31 -37 50 7 8 21 15 31 15 11 0 19 7 20 18 1 9 2 25 3 36 0 10 16 25 36
35 19 9 40 27 47 41 7 13 18 29 25 35 7 6 18 19 24 30 6 10 19 23 29 29 11 6
25 17 33 24 8 7 31 21 51 32 51 25 101 74 101 97 0 10 5 24 11 30 7 7 -2 15
-31 27 -64 26 -92 21 -167 -31z m4078 -939 c12 -14 11 -16 -5 -13 -11 2 -21
10 -24 17 -5 17 13 15 29 -4z m-124 -649 c3 -9 3 -18 1 -21 -9 -9 -38 8 -38
22 0 19 29 18 37 -1z m-91 -302 c12 -12 13 -18 4 -21 -7 -3 -22 5 -33 17 -18
18 -19 21 -5 21 9 0 24 -8 34 -17z m909 -13 c3 -6 -5 -10 -19 -10 -14 0 -28 5
-31 10 -3 6 5 10 19 10 14 0 28 -4 31 -10z m-5165 -530 c0 -5 -4 -10 -10 -10
-5 0 -10 5 -10 10 0 6 5 10 10 10 6 0 10 -4 10 -10z m4910 -128 c0 -15 -2 -15
-10 -2 -13 20 -13 33 0 25 6 -3 10 -14 10 -23z m-6175 -162 c3 -5 -3 -10 -15
-10 -12 0 -18 5 -15 10 3 6 10 10 15 10 5 0 12 -4 15 -10z m5956 -353 c-1 -12
-15 -9 -19 4 -3 6 1 10 8 8 6 -3 11 -8 11 -12z m-235 -212 c72 -36 117 -85
108 -119 -3 -14 -10 -26 -15 -26 -4 0 -29 25 -55 55 -26 30 -50 53 -52 50 -2
-2 16 -34 42 -70 45 -65 46 -67 35 -110 -6 -24 -25 -61 -43 -81 l-32 -37 -64
27 c-97 40 -100 41 -40 5 110 -64 106 -60 86 -74 -9 -7 -16 -19 -15 -27 3 -27
-2 -39 -30 -63 -24 -22 -29 -36 -34 -90 -4 -36 -19 -94 -35 -132 -16 -37 -32
-85 -36 -105 -4 -21 -14 -43 -24 -50 -11 -8 -18 -29 -19 -56 -3 -62 -25 -89
-99 -124 -82 -38 -106 -34 -137 29 l-24 46 5 -56 4 -57 -47 -20 c-26 -11 -49
-19 -51 -17 -2 2 -16 30 -30 63 -19 46 -24 51 -19 24 18 -97 18 -107 0 -114
-21 -8 -35 0 -35 20 0 9 -20 42 -45 74 -25 32 -45 61 -45 64 0 3 12 6 28 6
l27 0 -25 19 -24 19 24 21 c14 11 28 20 32 21 3 0 20 -17 37 -37 37 -44 39
-39 9 22 l-22 45 39 40 c21 22 45 40 53 40 8 0 36 -11 63 -25 51 -25 68 -18
23 11 -14 9 -32 30 -40 47 -15 28 -15 30 13 56 16 14 44 50 62 79 31 47 38 52
70 52 l36 1 -32 14 c-44 19 -43 46 3 138 50 102 49 101 119 77 82 -28 91 -24
18 10 -74 34 -76 39 -32 139 31 69 33 71 68 72 36 1 36 1 9 11 -34 12 -35 20
-3 75 26 43 26 43 83 43 42 0 72 -7 108 -25z m-2722 -164 c9 -14 -4 -41 -19
-41 -21 0 -28 19 -15 35 14 17 26 19 34 6z m783 -77 c-10 -10 -47 26 -47 45 0
11 7 8 27 -11 15 -15 24 -31 20 -34z m83 27 c0 -6 -4 -13 -10 -16 -5 -3 -10 1
-10 9 0 9 5 16 10 16 6 0 10 -4 10 -9z m-605 -41 c3 -6 -1 -13 -10 -16 -19 -8
-30 0 -20 15 8 14 22 14 30 1z m-275 -175 c0 -8 -4 -15 -10 -15 -5 0 -10 7
-10 15 0 8 5 15 10 15 6 0 10 -7 10 -15z m327 -21 c-9 -9 -28 6 -21 18 4 6 10
6 17 -1 6 -6 8 -13 4 -17z m1297 10 c9 -22 -3 -32 -14 -14 -12 19 -12 30 -1
30 5 0 12 -7 15 -16z m-1654 -4 c0 -5 19 -15 43 -21 53 -15 61 -23 53 -46 -7
-17 -8 -17 -23 2 -14 19 -15 19 -11 -5 2 -19 -1 -24 -14 -22 -10 2 -18 -1 -18
-6 0 -8 -30 -50 -75 -104 -24 -29 -45 -22 -45 15 0 43 27 146 46 175 14 22 44
31 44 12z m1487 -27 c27 -35 43 -72 33 -78 -10 -6 -60 62 -60 82 0 18 10 16
27 -4z m93 -105 c0 -6 -7 -5 -15 2 -8 7 -15 17 -15 22 0 6 7 5 15 -2 8 -7 15
-17 15 -22z m-720 -172 c0 -56 -21 -33 -27 31 -4 45 -3 47 11 29 9 -11 16 -38
16 -60z m-12 -70 c4 -36 -5 -76 -18 -76 -6 0 -10 25 -10 56 0 40 4 55 13 52 6
-3 13 -17 15 -32z m1182 -201 c40 -69 39 -115 -3 -129 -33 -12 -47 2 -47 49 0
30 -12 57 -24 56 -19 -3 -26 0 -26 10 0 6 9 9 20 6 17 -4 18 -2 9 15 -14 26
-5 48 20 48 13 0 30 -18 51 -55z m-3197 19 c18 -9 33 -18 35 -19 2 -2 -6 -18
-17 -36 -13 -22 -21 -51 -21 -81 0 -41 -3 -48 -19 -48 -14 0 -23 12 -32 38
-10 28 -14 32 -17 17 -8 -40 -22 -47 -48 -22 -30 28 -30 39 4 74 15 16 35 43
44 61 20 37 27 38 71 16z m102 -34 c3 -5 12 -33 20 -62 17 -66 7 -88 -38 -88
-29 0 -34 4 -49 46 -15 43 -15 49 0 80 16 34 53 47 67 24z m92 -20 c35 0 83
-18 83 -32 0 -37 -54 -108 -83 -108 -11 0 -43 77 -52 125 -5 32 -4 38 6 28 7
-7 28 -13 46 -13z m2912 -42 c29 -54 22 -83 -20 -83 -18 0 -25 6 -27 25 -9 82
-12 90 -32 78 -13 -9 -18 -19 -14 -35 4 -13 3 -23 -1 -23 -6 0 -46 19 -54 26
-3 3 9 18 25 35 23 24 36 29 63 27 29 -3 38 -10 60 -50z m-2683 -24 c25 -21
55 -36 69 -36 14 0 28 -5 31 -10 7 -12 -15 -38 -40 -48 -19 -6 -17 -9 14 -25
41 -21 100 -67 100 -77 0 -16 -29 -7 -58 17 -34 29 -66 42 -145 61 -114 27
-140 57 -100 114 36 52 69 53 129 4z m2489 -19 c-3 -14 -7 -36 -10 -50 -7 -33
-28 -32 -46 3 -7 15 -15 30 -17 34 -4 8 47 37 66 38 8 0 11 -9 7 -25z m101
-20 c10 -25 -7 -40 -23 -20 -7 11 -13 22 -13 27 0 14 30 9 36 -7z m-45 -16 c8
-16 8 -24 0 -32 -14 -14 -31 6 -31 36 0 23 17 22 31 -4z m-135 -4 c4 -8 3 -22
0 -31 -5 -12 -9 -14 -20 -5 -10 9 -17 6 -30 -14 -14 -21 -20 -23 -42 -15 -36
14 -44 13 -44 -9 0 -15 -18 -28 -64 -50 -63 -31 -96 -38 -96 -23 0 4 12 15 28
24 20 13 22 18 10 18 -12 0 -18 8 -18 21 0 17 5 20 25 17 17 -4 31 2 46 18 13
13 28 24 36 24 7 0 30 9 50 20 45 24 111 27 119 5z m-336 -195 c0 -5 -4 -10
-10 -10 -5 0 -10 5 -10 10 0 6 5 10 10 10 6 0 10 -4 10 -10z m227 -356 c7 -19
-30 -59 -46 -50 -15 9 -14 39 1 54 17 17 37 15 45 -4z m-2324 -811 c4 -3 -1
-12 -10 -18 -14 -11 -15 -16 -5 -28 14 -17 0 -33 -19 -22 -5 4 -28 -5 -50 -20
-23 -14 -44 -24 -47 -20 -3 3 0 25 8 48 13 35 20 43 45 45 17 2 34 8 40 13 11
11 29 12 38 2z m-144 -40 c-1 -51 -34 -94 -184 -246 -88 -89 -178 -181 -199
-205 l-38 -43 -22 20 c-29 28 -41 27 -22 -1 29 -42 21 -75 -26 -104 -24 -14
-55 -34 -70 -45 -15 -10 -34 -19 -43 -19 -8 0 -15 -7 -15 -15 0 -8 -24 -30
-52 -49 -92 -58 -93 -58 -121 -36 -34 27 -43 25 -22 -6 9 -14 14 -32 11 -39
-7 -19 -51 -47 -87 -54 -16 -3 -30 -10 -30 -16 0 -13 -29 -44 -52 -57 -14 -7
-28 -3 -58 18 -48 33 -62 26 -19 -9 36 -31 37 -37 4 -61 -25 -18 -48 -18 -99
-1 -11 4 -6 -3 12 -15 18 -12 30 -27 27 -33 -3 -7 -25 -27 -49 -45 -35 -27
-48 -31 -63 -23 -20 10 -92 87 -92 97 0 3 7 30 16 60 17 60 33 67 82 37 l27
-17 -19 22 c-11 12 -25 22 -31 22 -34 0 -22 71 25 155 15 28 30 66 34 85 3 19
34 85 67 145 34 61 83 154 110 207 62 125 72 132 209 136 l107 4 8 -33 9 -34
3 32 c5 37 19 48 83 58 25 4 61 13 81 20 45 16 59 6 60 -44 l1 -36 9 39 c5 22
14 45 21 53 12 14 88 38 156 47 39 6 42 4 43 -16 0 -23 0 -23 9 -2 11 29 95
60 168 63 24 1 32 -3 31 -16z m-1274 -1046 c21 -16 13 -37 -14 -37 -22 0 -45
25 -36 40 9 14 28 13 50 -3z m5247 -52 c0 -5 -5 -11 -11 -13 -6 -2 -11 4 -11
13 0 9 5 15 11 13 6 -2 11 -8 11 -13z m-5275 -40 c31 -21 26 -44 -14 -67 -27
-16 -33 -17 -44 -4 -47 49 -58 73 -41 90 10 11 70 0 99 -19z m-77 -96 c13 -23
14 -22 -19 -39 -17 -8 -26 -9 -34 -1 -8 8 -6 11 6 11 14 0 16 6 11 25 -8 32
20 35 36 4z m652 -111 c-15 -15 -26 -4 -18 18 5 13 9 15 18 6 9 -9 9 -15 0
-24z m-796 -605 c-5 -12 -10 -13 -17 -6 -8 8 -7 18 2 34 12 21 14 22 17 6 2
-10 1 -25 -2 -34z"/>
<path d="M3895 9560 c-3 -6 1 -7 9 -4 18 7 21 14 7 14 -6 0 -13 -4 -16 -10z"/>
<path d="M3870 9460 c-13 -8 -12 -10 3 -10 9 0 17 5 17 10 0 12 -1 12 -20 0z"/>
<path d="M5900 7921 c0 -11 31 -24 39 -16 3 3 -1 10 -9 15 -19 12 -30 12 -30
1z"/>
<path d="M7486 6095 c-3 -9 0 -15 9 -15 16 0 20 16 6 24 -5 3 -11 -1 -15 -9z"/>
<path d="M6065 2650 c-10 -11 -13 -20 -7 -20 6 0 16 9 22 20 6 11 9 20 7 20
-2 0 -12 -9 -22 -20z"/>
<path d="M6027 2534 c-8 -8 1 -24 14 -24 5 0 9 7 9 15 0 15 -12 20 -23 9z"/>
</g>
</svg>
